<svg id="root" xmlns="http://www.w3.org/2000/svg" viewBox="0 0 304.14 647.16">
  <defs>
    <style>
      .cls-1, .cls-2 {
        fill: #fff;
      }

      .cls-1 {
        opacity: 0;
      }
    </style>
  </defs>
  <title>one-brightstar</title>
  <g id="canvas">
    <rect id="underlay" class="cls-1" width="304.14" height="647.16"/>
    <g id="step-7">
      <g id="text7">
        <path class="cls-2" d="M20.65,618.68V584.35H31.54c4.64,0,6.21,1.62,7.46,3.52a9.36,9.36,0,0,1,1.34,4.56c0,4.28-1.44,7.13-5.75,8.13v.24c4.78.57,6.86,3.52,6.86,8.22,0,8.8-6.26,9.65-10.06,9.65Zm4.26-19.87h6.21c3.34,0,5-2.14,5-5.47,0-2.85-1.58-5.18-5.15-5.18h-6Zm0,16.07h6c4.54,0,6.17-3.33,6.17-5.85,0-5.47-3.29-6.42-7.65-6.42H24.92Z"/>
        <path class="cls-2" d="M54.12,602.89v15.79H49.85V584.35H61.4c5.93,0,8,4.28,8,8.56,0,4-2.18,7.13-6.12,7.85v.09c3.85.62,5.24,1.95,5.47,8.84a53.31,53.31,0,0,0,1.16,9H65.48c-1.21-2.38-.93-6.85-1.3-11.41-.32-4.18-3.62-4.37-5.05-4.37Zm0-3.8h6.4c3.06,0,4.54-2.71,4.54-5.71,0-2.47-1.21-5.23-4.5-5.23H54.12Z"/>
        <path class="cls-2" d="M82.86,618.68H78.59V584.35h4.26Z"/>
        <path class="cls-2" d="M109.28,593.53c0-4-1.62-6.23-5.93-6.23-1.34,0-6.17.24-6.17,7.42v11.6c0,7.51,2.13,9.41,6.17,9.41a10.38,10.38,0,0,0,6-1.52V603.94h-6.17v-3.8h10.43v16.69a20.22,20.22,0,0,1-10.25,2.57c-7.09,0-10.52-3.76-10.52-13.27V594.86c0-6.85,3.43-11.22,10.52-11.22s10.66,2.71,10.38,9.89Z"/>
        <path class="cls-2" d="M124.16,618.68V584.35h4.26v14.83h11.73V584.35h4.26v34.33h-4.26V603H128.43v15.69Z"/>
        <path class="cls-2" d="M173.3,584.35v3.8h-8.81v30.52h-4.26V588.15h-8.81v-3.8Z"/>
        <path class="cls-2" d="M183.26,608.46v1c0,4.66,2.87,6.13,5.61,6.13,3.38,0,6-1.47,6-5.56,0-7.61-15-6.75-15-17.07,0-6.09,4.22-9.32,9.83-9.32,6.12,0,9.55,3,9.27,10h-4.45c0-3.76-1.11-6.23-5.15-6.23-2.55,0-5.15,1.33-5.15,5,0,7.56,15,6.47,15,17.35,0,7.23-4.87,9.56-10.38,9.56-9.87.1-9.87-7.65-9.78-10.94Z"/>
        <path class="cls-2" d="M226.88,584.35v3.8h-8.81v30.52h-4.26V588.15H205v-3.8Z"/>
        <path class="cls-2" d="M240,584.35h5.42l10.89,34.33h-4.77l-2.41-8.18H236.2l-2.5,8.18h-4.31Zm2.6,4h-.09l-5.24,18.31H248Z"/>
        <path class="cls-2" d="M267.49,602.89v15.79h-4.26V584.35h11.54c5.93,0,8,4.28,8,8.56,0,4-2.18,7.13-6.12,7.85v.09c3.85.62,5.24,1.95,5.47,8.84a53.31,53.31,0,0,0,1.16,9h-4.45c-1.21-2.38-.93-6.85-1.3-11.41-.32-4.18-3.62-4.37-5.05-4.37Zm0-3.8h6.4c3.06,0,4.54-2.71,4.54-5.71,0-2.47-1.21-5.23-4.5-5.23h-6.44Z"/>
      </g>
      <rect id="target7" class="cls-1" x="15.78" y="581.69" width="270.62" height="41.67"/>
    </g>
    <g id="step-6">
      <g id="text6">
        <path class="cls-2" d="M19.92,562.09h3.43c3.24,0,3.57.86,3.57,4.36,0,2.15-.29,3.08-2.1,3.63v0c1.51.16,2,.93,2,2.44V576a11,11,0,0,0,.13,2H24.88a2.75,2.75,0,0,1-.27-1.44V573c0-1.51-.27-1.91-1.73-1.91h-.75v7H19.92Zm2.21,7.18h.58c1.75,0,2-.33,2-2.72S24.57,564,23.19,564H22.13Z"/>
        <path class="cls-2" d="M28.86,562.09h6V564H31.08v5h3.59v1.86H31.08v5.41h3.81v1.86h-6Z"/>
        <path class="cls-2" d="M36.5,562.09h2.21v14.13h3.72v1.86H36.5Z"/>
        <path class="cls-2" d="M44.15,562.09h6V564H46.36v5H50v1.86H46.36v5.41h3.81v1.86h-6Z"/>
        <path class="cls-2" d="M51.79,562.09h3.06l2.61,13.29h0V562.09h2.08v16H56.4l-2.61-13.65h0v13.65H51.79Z"/>
        <path class="cls-2" d="M61.2,562.09h7.53V564H66.07v14.14H63.86V564H61.2Z"/>
        <path class="cls-2" d="M70.35,562.09h2.21v14.13h3.72v1.86H70.35Z"/>
        <path class="cls-2" d="M77.88,562.09h6V564H80.09v5h3.59v1.86H80.09v5.41H83.9v1.86h-6Z"/>
        <path class="cls-2" d="M85.54,573.46h2.22v1.31c0,1.06.4,1.73,1.29,1.73,1.17,0,1.46-.8,1.46-1.84,0-1.35-.07-1.79-2.37-4.08-1.42-1.42-2.59-2.7-2.59-4.87,0-2.61,1.22-3.74,3.63-3.74a3.77,3.77,0,0,1,2.59.89,2.57,2.57,0,0,1,.64,2v1.51H90.33v-1.26c0-.91-.38-1.44-1.24-1.44s-1.33.51-1.33,1.75c0,1.09.22,1.75,2.26,3.88s2.57,3,2.57,5c0,2.5-1,3.94-3.61,3.94-2,0-3.43-.86-3.43-2.86Z"/>
        <path class="cls-2" d="M94.62,573.46h2.21v1.31c0,1.06.4,1.73,1.29,1.73,1.17,0,1.46-.8,1.46-1.84,0-1.35-.07-1.79-2.37-4.08-1.42-1.42-2.59-2.7-2.59-4.87,0-2.61,1.22-3.74,3.63-3.74a3.77,3.77,0,0,1,2.59.89,2.57,2.57,0,0,1,.64,2v1.51H99.41v-1.26c0-.91-.38-1.44-1.24-1.44s-1.33.51-1.33,1.75c0,1.09.22,1.75,2.26,3.88s2.57,3,2.57,5c0,2.5-1,3.94-3.61,3.94-2,0-3.43-.86-3.43-2.86Z"/>
        <path class="cls-2" d="M105.72,562.09h3.66c3,0,3.59.82,3.59,4.52s-.58,4.52-3.59,4.52h-1.44v7h-2.22Zm2.22,7.18h1.15c1.51,0,1.66-.24,1.66-2.66s-.16-2.66-1.66-2.66h-1.15Z"/>
        <path class="cls-2" d="M123.33,574.48c0,1.86-.73,3.74-3.75,3.74s-3.77-1.88-3.77-3.74V562.09H118v12.76c0,1.08.4,1.64,1.55,1.64s1.53-.55,1.53-1.64V562.09h2.22Z"/>
        <path class="cls-2" d="M126.45,562.09h3.43c3.23,0,3.57.86,3.57,4.36,0,2.15-.29,3.08-2.1,3.63v0c1.51.16,2,.93,2,2.44V576a11,11,0,0,0,.13,2h-2.08a2.75,2.75,0,0,1-.27-1.44V573c0-1.51-.27-1.91-1.73-1.91h-.75v7h-2.22Zm2.22,7.18h.58c1.75,0,2-.33,2-2.72s-.13-2.59-1.51-2.59h-1.06Z"/>
        <path class="cls-2" d="M136.37,573.46h2.21v1.31c0,1.06.4,1.73,1.29,1.73,1.17,0,1.46-.8,1.46-1.84,0-1.35-.07-1.79-2.37-4.08-1.42-1.42-2.59-2.7-2.59-4.87,0-2.61,1.22-3.74,3.63-3.74a3.77,3.77,0,0,1,2.59.89,2.57,2.57,0,0,1,.64,2v1.51h-2.08v-1.26c0-.91-.38-1.44-1.24-1.44s-1.33.51-1.33,1.75c0,1.09.22,1.75,2.26,3.88s2.57,3,2.57,5c0,2.5-1,3.94-3.61,3.94-2,0-3.43-.86-3.43-2.86Z"/>
        <path class="cls-2" d="M153.8,574.48c0,1.86-.73,3.74-3.74,3.74s-3.77-1.88-3.77-3.74V562.09h2.22v12.76c0,1.08.4,1.64,1.55,1.64s1.53-.55,1.53-1.64V562.09h2.22Z"/>
        <path class="cls-2" d="M156.86,562.09h2.22v16h-2.22Z"/>
        <path class="cls-2" d="M161.51,562.09H169V564h-2.66v14.14h-2.22V564h-2.66Z"/>
        <path class="cls-2" d="M172.14,566.17c0-2.24.73-4.21,3.74-4.21,2.86,0,3.77,1.48,3.77,4V574c0,2.24-.73,4.21-3.77,4.21-2.84,0-3.74-1.48-3.74-4Zm2.22,8.22c0,1.37.62,2.1,1.53,2.1s1.55-.73,1.55-2.1V566c0-1.57-.53-2.3-1.55-2.3s-1.53.73-1.53,2.3Z"/>
        <path class="cls-2" d="M182.77,562.09h6V564H185v5h3.59v1.86H185v7.27h-2.21Z"/>
        <path class="cls-2" d="M192.41,562.09h6V564h-3.81v5h3.59v1.86h-3.59v5.41h3.81v1.86h-6Z"/>
        <path class="cls-2" d="M203.88,569.78l-3.21-7.69H203l2.08,5.63,2.08-5.63h2.22L206.21,570l3.3,8.09h-2.35L205,572.22l-2.35,5.87h-2.22Z"/>
        <path class="cls-2" d="M211.32,566.17c0-2.24.73-4.21,3.74-4.21,2.19,0,3.21,1.11,3.21,2.9v1.59H216.2v-1.11c0-1-.35-1.66-1.29-1.66-1.15,0-1.37.82-1.37,2.75v7.84c0,1.88.6,2.21,1.31,2.21s1.35-.58,1.35-1.91v-1.11h2.08v1.77c0,1.68-.69,3-3.26,3-2.79,0-3.7-1.48-3.7-4Z"/>
        <path class="cls-2" d="M221,562.09h6V564h-3.81v5h3.59v1.86h-3.59v5.41H227v1.86h-6Z"/>
        <path class="cls-2" d="M229.62,562.09h2.21v14.13h3.72v1.86h-5.94Z"/>
        <path class="cls-2" d="M238.16,562.09h2.22v14.13h3.72v1.86h-5.94Z"/>
        <path class="cls-2" d="M246.82,562.09h6V564H249v5h3.59v1.86H249v5.41h3.81v1.86h-6Z"/>
        <path class="cls-2" d="M255.48,562.09h3.06l2.61,13.29h0V562.09h2.08v16h-3.19l-2.61-13.65h0v13.65h-1.95Z"/>
        <path class="cls-2" d="M266.07,566.17c0-2.24.73-4.21,3.74-4.21,2.19,0,3.21,1.11,3.21,2.9v1.59h-2.08v-1.11c0-1-.35-1.66-1.29-1.66-1.15,0-1.37.82-1.37,2.75v7.84c0,1.88.6,2.21,1.31,2.21s1.35-.58,1.35-1.91v-1.11H273v1.77c0,1.68-.69,3-3.26,3-2.79,0-3.7-1.48-3.7-4Z"/>
        <path class="cls-2" d="M275.79,562.09h6V564H278v5h3.59v1.86H278v5.41h3.81v1.86h-6Z"/>
      </g>
      <rect id="target6" class="cls-1" x="15.78" y="560" width="270.62" height="21.69"/>
    </g>
    <g id="step-5">
      <g id="text5">
        <path class="cls-2" d="M20.44,534.39H23.6v22.84H20.44Z"/>
        <path class="cls-2" d="M30,534.39h4.37l3.73,19h.06v-19h3v22.84H36.57l-3.73-19.49h-.06v19.49H30Z"/>
        <path class="cls-2" d="M47.26,550.62h3.16v1.87c0,1.52.57,2.47,1.83,2.47,1.68,0,2.09-1.14,2.09-2.63,0-1.93-.1-2.56-3.38-5.82-2-2-3.7-3.86-3.7-7,0-3.73,1.74-5.35,5.19-5.35a5.38,5.38,0,0,1,3.7,1.26,3.67,3.67,0,0,1,.92,2.91v2.15h-3v-1.8c0-1.3-.54-2.06-1.77-2.06s-1.9.73-1.9,2.5c0,1.55.32,2.5,3.23,5.54,3.1,3.23,3.67,4.33,3.67,7.09,0,3.57-1.39,5.63-5.16,5.63-2.91,0-4.9-1.23-4.9-4.08Z"/>
        <path class="cls-2" d="M63.93,534.39h5.22c4.3,0,5.12,1.17,5.12,6.45s-.82,6.45-5.12,6.45H67.09v9.93H63.93Zm3.16,10.25h1.64c2.15,0,2.37-.35,2.37-3.8s-.22-3.8-2.37-3.8H67.09Z"/>
        <path class="cls-2" d="M80.75,534.39h3.16v22.84H80.75Z"/>
        <path class="cls-2" d="M90.78,534.39h4.9c4.62,0,5.09,1.23,5.09,6.23,0,3.07-.41,4.4-3,5.19v.06c2.15.22,2.88,1.33,2.88,3.48v5a15.61,15.61,0,0,0,.19,2.91h-3a3.92,3.92,0,0,1-.38-2.06V550c0-2.15-.38-2.72-2.47-2.72H93.94v9.93H90.78Zm3.16,10.25h.82c2.5,0,2.85-.47,2.85-3.89s-.19-3.7-2.15-3.7H93.94Z"/>
        <path class="cls-2" d="M107.51,534.39h8.6v2.66h-5.44v7.15h5.12v2.66h-5.12v7.72h5.44v2.66h-8.6Z"/>
        <path class="cls-2" d="M122.09,534.39h5.09c5.12,0,5.54,1.71,5.54,8.35v6.8c0,5.85-1,7.69-6,7.69h-4.59Zm3.16,20.18h1.52c2.34,0,2.78-1.23,2.78-5.16v-7.84c0-3.38-.35-4.52-3-4.52h-1.26Z"/>
        <path class="cls-2" d="M140.34,534.39H151.1v2.66h-3.8v20.18h-3.16V537.05h-3.8Z"/>
        <path class="cls-2" d="M157.39,534.39H166v2.66h-5.44v7.15h5.12v2.66h-5.12v7.72H166v2.66h-8.6Z"/>
        <path class="cls-2" d="M176.18,534.39h3.67l4.65,22.84h-3.16l-1-5.82h-4.93l-1,5.82h-3.16Zm-.35,14.36h4l-2-11h-.06Z"/>
        <path class="cls-2" d="M190.09,534.39h5l2.91,17.4h.06l2.91-17.4h4.9v22.84h-3V536.67h-.06l-3.23,20.56h-3.16l-3.54-20.56h-.06v20.56h-2.78Z"/>
        <path class="cls-2" d="M211.48,534.39h3.26L217,553.18h.06l2.53-18.79h4.3L226,553.18h.06l2.72-18.79h3l-4.11,22.84h-3.86l-2.12-19.11h-.06l-2.69,19.11h-3.83Z"/>
        <path class="cls-2" d="M236.59,540.21c0-3.2,1-6,5.35-6,4.08,0,5.38,2.12,5.38,5.66v11.54c0,3.2-1,6-5.38,6-4,0-5.35-2.12-5.35-5.66Zm3.16,11.74c0,2,.89,3,2.18,3s2.21-1,2.21-3V540c0-2.25-.76-3.29-2.21-3.29s-2.18,1-2.18,3.29Z"/>
        <path class="cls-2" d="M253.7,534.39h4.9c4.62,0,5.09,1.23,5.09,6.23,0,3.07-.41,4.4-3,5.19v.06c2.15.22,2.88,1.33,2.88,3.48v5a15.61,15.61,0,0,0,.19,2.91h-3a3.92,3.92,0,0,1-.38-2.06V550c0-2.15-.38-2.72-2.47-2.72h-1.08v9.93H253.7Zm3.16,10.25h.82c2.5,0,2.85-.47,2.85-3.89s-.19-3.7-2.15-3.7h-1.52Z"/>
        <path class="cls-2" d="M270.15,534.39h3.16V544.8h.06l5-10.41h3.16l-5.31,10.72,5.69,12.12h-3.54l-5-11.42h-.06v11.42h-3.16Z"/>
      </g>
      <rect id="target5" class="cls-1" x="15.78" y="528.7" width="270.62" height="30.99"/>
    </g>
    <g id="step-4">
      <g id="text4">
        <g>
          <path class="cls-2" d="M109.62,475.79h5.16v1.69h-3.21v8h3.07v1.69h-3.07v8.81h3.21v1.69h-5.16Z"/>
          <path class="cls-2" d="M128.12,491.59h-3.42l-.8,6.05H122l3.13-21.85h2.65l3.13,21.85h-1.95Zm-1.68-14.28h-.06l-1.47,12.59h3Z"/>
          <path class="cls-2" d="M143.34,488.47c0-1.06-.62-1.33-1.53-1.33h-1.3v10.5h-1.95V475.79h3.63c1.86,0,3,.33,3,2.51v5.54c0,1.69-.62,2.27-2.12,2.36v.06c1.39.09,2.21.51,2.21,2v9.35h-1.95Zm-1.53-3c.91,0,1.45-.27,1.45-1.57V479c0-1.27-.65-1.48-1.65-1.48H140.5v8Z"/>
          <path class="cls-2" d="M159.33,475.79H161v21.85h-2.77l-2.45-19.43h-.06v19.43H154V475.79h2.83l2.39,18.7h.06Z"/>
          <path class="cls-2" d="M169.71,475.79h5.16v1.69h-3.21v8h3.07v1.69h-3.07v8.81h3.21v1.69h-5.16Z"/>
          <path class="cls-2" d="M183.19,475.79h3.33c2.65,0,3.3,1.39,3.3,3.54V494.1c0,2.15-.65,3.54-3.3,3.54h-3.33Zm3,20.15c1.3,0,1.71-.42,1.71-1.69V479.18c0-1.27-.41-1.7-1.71-1.7h-1v18.46Z"/>
        </g>
        <g>
          <path class="cls-2" d="M121,504.18v3.28H116.5v16.47h-4V507.47H108v-3.28Z"/>
          <path class="cls-2" d="M129.73,523.94h-4V504.18h7.45c2.75,0,4.51,1.81,4.51,5.17,0,2.52-1,4.4-3.58,4.84v.05c.88.11,3.5.33,3.5,3.89,0,1.26.08,5,.45,5.8h-4a9.29,9.29,0,0,1-.43-3.83c0-2.35.21-4.35-2.88-4.35h-1Zm0-11.22h1.79c1.6,0,2.05-1.64,2.05-2.9,0-1.89-.77-2.6-2.05-2.6h-1.79Z"/>
          <path class="cls-2" d="M156.57,504.18v14c0,3-1.63,6.07-6.54,6.07-4.43,0-6.57-2.35-6.57-6.07v-14h4v13.73c0,2.43,1,3.39,2.48,3.39,1.76,0,2.56-1.2,2.56-3.39V504.18Z"/>
          <path class="cls-2" d="M168,524.26c-5,0-5.92-3-5.71-6.43h4c0,1.89.08,3.47,2.29,3.47,1.36,0,2-.9,2-2.24,0-3.56-8.11-3.78-8.11-9.66,0-3.09,1.44-5.55,6.35-5.55,3.92,0,5.87,1.81,5.6,5.94h-3.92c0-1.48-.24-3-1.87-3a1.9,1.9,0,0,0-2.08,2.11c0,3.75,8.11,3.42,8.11,9.63C174.74,523.66,171.09,524.26,168,524.26Z"/>
          <path class="cls-2" d="M192,504.18v3.28h-4.48v16.47h-4V507.47H179v-3.28Z"/>
        </g>
      </g>
      <rect id="target4" class="cls-1" x="105.18" y="471.63" width="91.82" height="57.06"/>
    </g>
    <g id="step-3">
      <g id="text3">
        <g>
          <path class="cls-2" d="M120.52,390.11V393h-4v14.65H113V393h-4v-2.92Z"/>
          <path class="cls-2" d="M135,397.15v-7h3.58v17.57H135v-7.84h-4.1v7.84h-3.58V390.11h3.58v7Z"/>
          <path class="cls-2" d="M146.64,407.68V390.11h3.58v17.57Z"/>
          <path class="cls-2" d="M158.25,407.68V390.11h4.84l4.56,12.17h0V390.11H171v17.57h-4.72l-4.67-12.85h0v12.85Z"/>
          <path class="cls-2" d="M186.65,390.11h3.94L185.79,398l4.79,9.69h-4l-4.11-9h0v9h-3.58V390.11h3.58v7.52h0Z"/>
        </g>
        <g>
          <path class="cls-2" d="M110.11,418.3c0-2.41.77-4.54,3.94-4.54,2.31,0,3.38,1.19,3.38,3.13v1.72h-2.19v-1.2c0-1.1-.37-1.79-1.35-1.79-1.21,0-1.44.88-1.44,3V427c0,2,.63,2.39,1.37,2.39s1.42-.62,1.42-2.05v-1.19h2.19v1.91c0,1.82-.72,3.2-3.42,3.2-2.94,0-3.89-1.6-3.89-4.28Z"/>
          <path class="cls-2" d="M127.81,427.26c0,2-.77,4-3.94,4s-4-2-4-4V413.91h2.33v13.76c0,1.17.42,1.77,1.63,1.77s1.61-.6,1.61-1.77V413.91h2.33Z"/>
          <path class="cls-2" d="M130.28,426.16h2.33v1.41c0,1.15.42,1.86,1.35,1.86,1.24,0,1.54-.86,1.54-2,0-1.46-.07-1.94-2.49-4.4-1.49-1.53-2.73-2.92-2.73-5.26,0-2.82,1.28-4,3.82-4a3.91,3.91,0,0,1,2.73,1,2.81,2.81,0,0,1,.68,2.2v1.63h-2.19v-1.36c0-1-.4-1.55-1.3-1.55s-1.4.55-1.4,1.89c0,1.17.23,1.89,2.38,4.18s2.7,3.27,2.7,5.35c0,2.7-1,4.25-3.8,4.25-2.14,0-3.61-.93-3.61-3.08Z"/>
          <path class="cls-2" d="M139.74,413.91h7.92v2h-2.8v15.25h-2.33V415.91h-2.8Z"/>
          <path class="cls-2" d="M149.67,418.3c0-2.41.77-4.54,3.94-4.54,3,0,4,1.6,4,4.28v8.72c0,2.41-.77,4.54-4,4.54-3,0-3.94-1.6-3.94-4.28Zm2.33,8.87c0,1.48.65,2.27,1.61,2.27s1.63-.79,1.63-2.27v-9.06c0-1.7-.56-2.49-1.63-2.49s-1.61.79-1.61,2.49Z"/>
          <path class="cls-2" d="M160.29,413.91H164L166.14,427h0l2.14-13.14h3.61v17.25h-2.19V415.63h0l-2.38,15.53H165l-2.61-15.53h0v15.53h-2Z"/>
          <path class="cls-2" d="M174.74,413.91h6.34v2h-4v5.4h3.78v2h-3.78v5.83h4v2h-6.34Z"/>
          <path class="cls-2" d="M183.5,413.91h3.61c3.4,0,3.75.93,3.75,4.71,0,2.32-.3,3.32-2.21,3.92v0c1.58.17,2.12,1,2.12,2.63V429a12.14,12.14,0,0,0,.14,2.2h-2.19a3,3,0,0,1-.28-1.55v-3.9c0-1.62-.28-2.05-1.82-2.05h-.79v7.5H183.5Zm2.33,7.74h.61c1.84,0,2.1-.36,2.1-2.94s-.14-2.8-1.58-2.8h-1.12Z"/>
        </g>
        <g>
          <path class="cls-2" d="M110.67,437.81h10.55v3.34h-6.67v9h6.29v3.34h-6.29v13.06h-3.88Z"/>
          <path class="cls-2" d="M128.67,437.81h3.88v28.74h-3.88Z"/>
          <path class="cls-2" d="M140.43,437.81h6c5.67,0,6.25,1.55,6.25,7.84,0,3.86-.5,5.53-3.69,6.53v.08c2.64.28,3.53,1.67,3.53,4.38v6.25a20.25,20.25,0,0,0,.23,3.66h-3.65a5.06,5.06,0,0,1-.46-2.59v-6.49c0-2.71-.47-3.42-3-3.42h-1.32v12.5h-3.88Zm3.88,12.9h1c3.07,0,3.49-.6,3.49-4.9s-.23-4.66-2.64-4.66h-1.86Z"/>
          <path class="cls-2" d="M159.76,458.23h3.88v2.35c0,1.91.7,3.11,2.25,3.11,2.06,0,2.56-1.43,2.56-3.3,0-2.43-.12-3.22-4.15-7.33-2.48-2.55-4.54-4.86-4.54-8.76,0-4.7,2.13-6.73,6.36-6.73a6.5,6.5,0,0,1,4.54,1.59c.66.64,1.13,1.63,1.13,3.66v2.71h-3.65v-2.27c0-1.63-.66-2.59-2.17-2.59s-2.33.92-2.33,3.15c0,2,.39,3.14,4,7,3.8,4.06,4.5,5.45,4.5,8.92,0,4.5-1.71,7.09-6.33,7.09-3.57,0-6-1.55-6-5.14Z"/>
          <path class="cls-2" d="M178.46,437.81h13.19v3.34H187v25.4h-3.88v-25.4h-4.66Z"/>
        </g>
      </g>
      <rect id="target3" class="cls-1" x="105.18" y="386.63" width="91.82" height="84.86"/>
    </g>
    <g id="step-2">
      <g id="text2">
        <g>
          <path class="cls-2" d="M114.72,353.06c0-1-.23-1.67-1.26-1.67s-1.26.71-1.26,1.67v2.58a4.5,4.5,0,0,0,.5,2.21l3.48,6.12a6,6,0,0,1,.8,3v3.87a3.25,3.25,0,0,1-3.51,3.6c-2.42,0-3.58-1.12-3.58-3.6v-3.36h2.19v3.23c0,1.16.43,1.83,1.39,1.83s1.33-.68,1.33-1.83v-3.43a4.46,4.46,0,0,0-.63-2.34l-3.21-5.74A5.75,5.75,0,0,1,110,356v-3c0-2.41,1.23-3.6,3.45-3.6,2.45,0,3.45,1.19,3.45,3.43V356h-2.19Z"/>
          <path class="cls-2" d="M122.14,351.59h-2.45v-1.9h7.09v1.9h-2.45v22.63h-2.19Z"/>
          <path class="cls-2" d="M135.49,363.93c0-1.19-.7-1.5-1.72-1.5h-1.46v11.79h-2.19V349.69h4.07c2.09,0,3.38.37,3.38,2.82v6.22c0,1.9-.7,2.55-2.38,2.65v.07c1.56.1,2.48.58,2.48,2.28v10.5h-2.19Zm-1.72-3.4c1,0,1.62-.31,1.62-1.77v-5.5c0-1.43-.73-1.67-1.85-1.67h-1.23v8.94Z"/>
          <path class="cls-2" d="M147.78,367.43h-3.84l-.89,6.8h-2.19l3.51-24.53h3l3.51,24.53h-2.19Zm-1.89-16h-.07l-1.66,14.14h3.38Z"/>
          <path class="cls-2" d="M155,351.59h-2.45v-1.9h7.09v1.9h-2.45v22.63H155Z"/>
          <path class="cls-2" d="M163,349.69h5.8v1.9h-3.61v8.94h3.44v1.9h-3.44v9.89h3.61v1.9H163Z"/>
          <path class="cls-2" d="M175.64,362.2h3.94v11.49a9.13,9.13,0,0,1-3.45.75c-3,0-4.11-1.5-4.11-4.32V353.36c0-2.55,1.39-3.87,3.78-3.87s3.78,1.33,3.78,3.87v2.75h-2.19v-2.45c0-1.36-.33-2.28-1.59-2.28s-1.59.92-1.59,2.28v16.41c0,2,1,2.45,1.72,2.45a2.81,2.81,0,0,0,1.46-.34V364.1h-1.76Z"/>
          <path class="cls-2" d="M188.55,349.69h2.19l-3.21,13.86v10.67h-2.19V363.56l-3.21-13.86h2.19l2.09,11.15h.07Z"/>
        </g>
        <g>
          <path class="cls-2" d="M110,339.51l9.37-38.18a28.11,28.11,0,0,0,.81-7.21V283.49c0-2.77-1.08-4.07-3.33-4.07-2.52,0-3.24,1.39-3.24,5v8.5h-3.24v-9c0-4.62,1.89-7.3,6.58-7.3,4.87,0,6.49,3.33,6.49,7v10.08a35.43,35.43,0,0,1-1.17,9.8L112.72,341h11.36v2.77H110Z"/>
          <path class="cls-2" d="M132,282.66c0-3.7,2.43-6,7-6s7,2.31,7,6.38v54.72c0,4.07-2.43,6.38-7,6.38s-7-2.31-7-6.38Zm3.24,54.63c0,2.59,1.26,4.07,3.79,4.07s3.79-1.48,3.79-4.07v-53.8c0-2.59-1.26-4.07-3.79-4.07s-3.79,1.48-3.79,4.07Z"/>
          <path class="cls-2" d="M154.09,339.51l9.37-38.18a28.11,28.11,0,0,0,.81-7.21V283.49c0-2.77-1.08-4.07-3.33-4.07-2.52,0-3.24,1.39-3.24,5v8.5h-3.25v-9c0-4.62,1.89-7.3,6.58-7.3,4.87,0,6.49,3.33,6.49,7v10.08a35.43,35.43,0,0,1-1.17,9.8L156.79,341h11.35v2.77H154.09Z"/>
          <path class="cls-2" d="M176.08,282.66c0-3.7,2.43-6,7-6s7,2.31,7,6.38v54.72c0,4.07-2.43,6.38-7,6.38s-7-2.31-7-6.38Zm3.24,54.63c0,2.59,1.26,4.07,3.79,4.07s3.79-1.48,3.79-4.07v-53.8c0-2.59-1.26-4.07-3.79-4.07s-3.79,1.48-3.79,4.07Z"/>
        </g>
        <rect class="cls-2" x="110.23" y="381.38" width="79.99" height="1.46"/>
      </g>
      <rect id="target2" class="cls-1" x="105.18" y="272.62" width="91.82" height="113.87"/>
    </g>
    <g id="step-1">
      <g id="text1">
        <g>
          <path class="cls-2" d="M110.36,176.84h6.26c4.43,0,5.18,1.59,5.18,6.46,0,5.24-.83,6.09-3.28,6.42v.07c2.88.55,3.46,1.55,3.46,6.09,0,5.76-.72,7.6-6,7.6h-5.65Zm3.6,11.44H116c2.16,0,2.38-.44,2.38-4.8,0-3-.47-3.76-2.77-3.76H114Zm0,12.33h2.23c2.05,0,2.41-.63,2.41-4.84,0-4-.32-4.61-2.3-4.61H114Z"/>
          <path class="cls-2" d="M125,183.63c0-3.73,1.19-7,6.08-7,4.64,0,6.12,2.47,6.12,6.61v13.47c0,3.73-1.19,7-6.12,7-4.61,0-6.08-2.47-6.08-6.61Zm3.6,13.69c0,2.29,1,3.51,2.48,3.51s2.52-1.22,2.52-3.51v-14c0-2.62-.86-3.84-2.52-3.84s-2.48,1.22-2.48,3.84Z"/>
          <path class="cls-2" d="M140.44,176.84H144v23.55h6v3.1h-9.65Z"/>
          <path class="cls-2" d="M153,176.84h5.79c5.83,0,6.3,2,6.3,9.74v7.94c0,6.83-1.19,9-6.87,9H153Zm3.6,23.55h1.73c2.66,0,3.17-1.44,3.17-6v-9.15c0-4-.4-5.28-3.46-5.28h-1.44Z"/>
          <path class="cls-2" d="M168.41,176.84H172v23.55h6v3.1h-9.65Z"/>
          <path class="cls-2" d="M177.54,176.84h3.6l3.13,11.22h.07l3.6-11.22h3.17l-5,15.72v10.93h-3.6V192.56Z"/>
        </g>
        <g>
          <path class="cls-2" d="M109.78,226.69h3.08v1.86c0,1.51.55,2.46,1.78,2.46,1.63,0,2-1.14,2-2.62,0-1.93-.09-2.56-3.29-5.81-2-2-3.6-3.85-3.6-6.94,0-3.72,1.69-5.33,5-5.33a5.15,5.15,0,0,1,3.6,1.26,3.72,3.72,0,0,1,.89,2.9v2.15h-2.89v-1.8c0-1.29-.52-2.05-1.72-2.05s-1.85.73-1.85,2.49c0,1.55.31,2.49,3.14,5.52,3,3.22,3.57,4.32,3.57,7.07,0,3.57-1.35,5.62-5,5.62-2.83,0-4.77-1.23-4.77-4.07Z"/>
          <path class="cls-2" d="M122.27,210.51h8.37v2.65h-5.29v7.13h5v2.65h-5v7.7h5.29v2.65h-8.37Z"/>
          <path class="cls-2" d="M133.19,210.51H138c4.49,0,5,1.23,5,6.22,0,3.06-.4,4.39-2.92,5.17V222c2.09.22,2.8,1.33,2.8,3.47v5a16,16,0,0,0,.18,2.9h-2.89a4,4,0,0,1-.37-2.05V226.1c0-2.15-.37-2.71-2.4-2.71h-1v9.91h-3.08Zm3.08,10.22h.8c2.43,0,2.77-.47,2.77-3.88s-.18-3.69-2.09-3.69h-1.48Z"/>
          <path class="cls-2" d="M144.91,210.51H148l3.2,18.11h.06l3.2-18.11h3.08L153,233.29h-3.57Z"/>
          <path class="cls-2" d="M160,210.51h3.08v22.78H160Z"/>
          <path class="cls-2" d="M166.2,210.51h4.25l3.63,18.93h.06V210.51H177v22.78H172.6L169,213.85h-.06v19.44H166.2Z"/>
          <path class="cls-2" d="M187.39,216.53v-1.17c0-1.61-.77-2.59-2-2.59-1.42,0-2.12,1.33-2.12,3.75V228c0,1.83.86,3,2.12,3a8.74,8.74,0,0,0,2-.22v-6.69h-2v-2.65h5.11v11.45a25.19,25.19,0,0,1-5.08.57c-3.91,0-5.17-2.11-5.17-5.65V216.31c0-4.26,1.26-6,5.23-6,3.29,0,5,1.23,5,4.13v2.08Z"/>
        </g>
        <g>
          <path class="cls-2" d="M109.19,240.15h2.71l1.9,16.05h.05L116,240.15h3.58l1.74,16.05h.05l2.26-16.05h2.48l-3.42,19.51h-3.21l-1.76-16.32h-.05l-2.24,16.32h-3.19Z"/>
          <path class="cls-2" d="M128.23,240.15h2.63v19.51h-2.63Z"/>
          <path class="cls-2" d="M133.53,240.15h4.08c3.84,0,4.24,1.05,4.24,5.32,0,2.62-.34,3.76-2.5,4.43V250c1.79.19,2.4,1.13,2.4,3v4.24a13.71,13.71,0,0,0,.16,2.49h-2.48a3.42,3.42,0,0,1-.32-1.76v-4.4c0-1.84-.32-2.32-2.05-2.32h-.9v8.49h-2.63Zm2.63,8.76h.69c2.08,0,2.37-.41,2.37-3.32s-.16-3.16-1.79-3.16h-1.26Z"/>
          <path class="cls-2" d="M144.3,240.15h7.16v2.27h-4.53v6.11h4.27v2.27h-4.27v6.59h4.53v2.27H144.3Z"/>
          <path class="cls-2" d="M153.52,240.15h2.63v17.24h4.42v2.27h-7.06Z"/>
          <path class="cls-2" d="M162.61,240.15h7.16v2.27h-4.53v6.11h4.27v2.27h-4.27v6.59h4.53v2.27h-7.16Z"/>
          <path class="cls-2" d="M171.8,254h2.63v1.59c0,1.3.47,2.11,1.53,2.11,1.4,0,1.74-1,1.74-2.24,0-1.65-.08-2.19-2.82-5-1.69-1.73-3.08-3.3-3.08-5.95,0-3.19,1.45-4.57,4.32-4.57a4.41,4.41,0,0,1,3.08,1.08,3.18,3.18,0,0,1,.76,2.49v1.84h-2.48v-1.54c0-1.11-.45-1.76-1.48-1.76s-1.58.62-1.58,2.13c0,1.32.26,2.13,2.69,4.73,2.58,2.76,3.05,3.7,3.05,6.05,0,3.05-1.16,4.81-4.29,4.81-2.42,0-4.08-1.05-4.08-3.49Z"/>
          <path class="cls-2" d="M182.33,254H185v1.59c0,1.3.47,2.11,1.53,2.11,1.4,0,1.74-1,1.74-2.24,0-1.65-.08-2.19-2.82-5-1.69-1.73-3.08-3.3-3.08-5.95,0-3.19,1.45-4.57,4.32-4.57a4.41,4.41,0,0,1,3.08,1.08,3.18,3.18,0,0,1,.76,2.49v1.84H188v-1.54c0-1.11-.45-1.76-1.47-1.76s-1.58.62-1.58,2.13c0,1.32.26,2.13,2.69,4.73,2.58,2.76,3.05,3.7,3.05,6.05,0,3.05-1.16,4.81-4.29,4.81-2.42,0-4.08-1.05-4.08-3.49Z"/>
        </g>
        <rect class="cls-2" x="110.23" y="268.13" width="79.99" height="1.46"/>
        <rect class="cls-2" x="110.23" y="167.92" width="79.99" height="1.46"/>
      </g>
      <rect id="target1" class="cls-1" x="105.18" y="163" width="91.82" height="109.48"/>
    </g>
    <g id="step-0">
      <g id="text0">
        <g>
          <path class="cls-2" d="M78.36,89.78h7.36L90,115.88h.09l4.26-26.1h7.17V124H97.15V93.2h-.09L92.33,124H87.71L82.53,93.2h-.09V124H78.36Z"/>
          <path class="cls-2" d="M107.56,98.51c0-4.79,1.53-9,7.82-9,6,0,7.87,3.18,7.87,8.49v17.32c0,4.79-1.53,9-7.87,9-5.92,0-7.82-3.18-7.82-8.5Zm4.63,17.61c0,2.94,1.3,4.51,3.19,4.51s3.24-1.57,3.24-4.51v-18c0-3.37-1.11-4.94-3.24-4.94s-3.19,1.57-3.19,4.94Z"/>
          <path class="cls-2" d="M129.3,89.78h8c5.69,0,6.66,2,6.66,8.3,0,6.74-1.06,7.83-4.21,8.26v.09c3.7.71,4.44,2,4.44,7.83,0,7.4-.93,9.78-7.68,9.78H129.3Zm4.63,14.71h2.68c2.78,0,3.05-.57,3.05-6.17,0-3.89-.6-4.84-3.56-4.84h-2.17Zm0,15.85h2.87c2.64,0,3.1-.81,3.1-6.22,0-5.17-.42-5.93-3-5.93h-3Z"/>
          <path class="cls-2" d="M149.94,89.78h4.63V124h-4.63Z"/>
          <path class="cls-2" d="M160.62,89.78h4.63v30.28H173v4h-12.4Z"/>
          <path class="cls-2" d="M178,89.78h12.58v4h-8v10.72h7.5v4h-7.5v11.58h8v4H178Z"/>
        </g>
        <g>
          <path class="cls-2" d="M29.06,152.25h3.14v1.9c0,1.55.57,2.51,1.82,2.51,1.67,0,2.07-1.16,2.07-2.67,0-2-.09-2.61-3.36-5.93-2-2.06-3.68-3.93-3.68-7.09,0-3.8,1.73-5.44,5.15-5.44a5.26,5.26,0,0,1,3.68,1.29,3.79,3.79,0,0,1,.91,3V142h-3v-1.84c0-1.32-.53-2.09-1.76-2.09s-1.88.74-1.88,2.54c0,1.58.31,2.54,3.2,5.64,3.08,3.29,3.64,4.41,3.64,7.22,0,3.64-1.38,5.73-5.12,5.73-2.89,0-4.87-1.26-4.87-4.16Z"/>
          <path class="cls-2" d="M41.35,135.73h8.54v2.71h-5.4v7.28h5.09v2.71H44.49v7.86h5.4V159H41.35Z"/>
          <path class="cls-2" d="M52.18,135.73h4.87c4.59,0,5.06,1.26,5.06,6.35,0,3.13-.41,4.48-3,5.28v.06c2.14.22,2.86,1.35,2.86,3.54V156a16.35,16.35,0,0,0,.19,3h-3a4.08,4.08,0,0,1-.38-2.09v-5.25c0-2.19-.38-2.77-2.45-2.77H55.33V159H52.18Zm3.14,10.44h.82c2.48,0,2.83-.48,2.83-4s-.19-3.77-2.14-3.77H55.33Z"/>
          <path class="cls-2" d="M63.81,135.73h3.14l3.27,18.49h.06l3.27-18.49h3.14L72.07,159H68.42Z"/>
          <path class="cls-2" d="M78.79,135.73h3.14V159H78.79Z"/>
          <path class="cls-2" d="M84.44,141.65c0-3.25,1-6.12,5.31-6.12,3.11,0,4.56,1.61,4.56,4.22v2.32h-3v-1.61c0-1.48-.5-2.42-1.82-2.42-1.63,0-1.95,1.19-1.95,4v11.4c0,2.74.85,3.22,1.85,3.22,1.16,0,1.92-.84,1.92-2.77v-1.61h3v2.58c0,2.45-1,4.32-4.62,4.32-4,0-5.25-2.16-5.25-5.77Z"/>
          <path class="cls-2" d="M96.63,135.73h8.55v2.71h-5.4v7.28h5.09v2.71H99.77v7.86h5.4V159H96.63Z"/>
          <path class="cls-2" d="M107.12,152.25h3.14v1.9c0,1.55.57,2.51,1.82,2.51,1.67,0,2.07-1.16,2.07-2.67,0-2-.09-2.61-3.36-5.93-2-2.06-3.68-3.93-3.68-7.09,0-3.8,1.73-5.44,5.15-5.44a5.27,5.27,0,0,1,3.68,1.29,3.79,3.79,0,0,1,.91,3V142h-3v-1.84c0-1.32-.53-2.09-1.76-2.09s-1.89.74-1.89,2.54c0,1.58.31,2.54,3.21,5.64,3.08,3.29,3.64,4.41,3.64,7.22,0,3.64-1.38,5.73-5.12,5.73-2.89,0-4.87-1.26-4.87-4.16Z"/>
          <path class="cls-2" d="M122.23,135.73h3.14v20.55h5.28V159h-8.42Z"/>
          <path class="cls-2" d="M132.44,135.73H141v2.71h-5.4v7.28h5.09v2.71h-5.09v7.86H141V159h-8.54Z"/>
          <path class="cls-2" d="M147.77,135.73h3.64L156,159h-3.14l-1-5.93H147l-1,5.93h-3.14Zm-.34,14.62h4l-1.95-11.21h-.06Z"/>
          <path class="cls-2" d="M157.85,135.73h5.06c5.09,0,5.5,1.74,5.5,8.5v6.93c0,6-1,7.83-6,7.83h-4.56ZM161,156.28h1.51c2.32,0,2.76-1.26,2.76-5.25v-8c0-3.45-.35-4.61-3-4.61H161Z"/>
          <path class="cls-2" d="M171,135.73h8.55v2.71h-5.4v7.28h5.09v2.71h-5.09v7.86h5.4V159H171Z"/>
          <path class="cls-2" d="M181.16,135.73H186c4.59,0,5.06,1.26,5.06,6.35,0,3.13-.41,4.48-3,5.28v.06c2.14.22,2.86,1.35,2.86,3.54V156a16.35,16.35,0,0,0,.19,3h-3a4.08,4.08,0,0,1-.38-2.09v-5.25c0-2.19-.38-2.77-2.45-2.77H184.3V159h-3.14Zm3.14,10.44h.82c2.48,0,2.83-.48,2.83-4s-.19-3.77-2.14-3.77H184.3Z"/>
        </g>
        <g>
          <path class="cls-2" d="M131.06,58.77h1.55V78.6h-2.52L127.87,61h-.05V78.6h-1.55V58.77h2.57l2.17,17h.05Z"/>
          <path class="cls-2" d="M140,58.77h1.77V75.93c0,2.2-1.61,2.83-3.13,2.83s-3.08-.63-3.08-2.83V58.77h1.77V75.36c0,1.43.46,1.87,1.34,1.87s1.34-.44,1.34-1.87Z"/>
          <path class="cls-2" d="M151.33,58.77h2.73V78.6H152.5V60.3h-.05l-2,18.29h-2.2l-2-18.29h-.05V78.6h-1.55V58.77h2.73l2,17.74h.05Z"/>
          <path class="cls-2" d="M156.89,58.77h3.29c1.69,0,2.73.3,2.73,2.28v5c0,1.54-.56,2.09-1.93,2.14v.05c1.23.05,2,.47,2,1.84v6.21c0,2-1,2.28-2.81,2.28h-3.29Zm2.95,8.76c.83,0,1.31-.25,1.31-1.43V61.65c0-1.15-.59-1.35-1.5-1.35h-1v7.22Zm-.11,9.53c.91,0,1.5-.19,1.5-1.35V70.27c0-1-.56-1.21-1.39-1.21h-1.18v8Z"/>
          <path class="cls-2" d="M166.08,58.77h4.69V60.3h-2.92v7.22h2.78v1.54h-2.78v8h2.92V78.6h-4.69Z"/>
          <path class="cls-2" d="M177.62,70.27c0-1-.56-1.21-1.39-1.21H175V78.6h-1.77V58.77h3.29c1.69,0,2.73.3,2.73,2.28v5c0,1.54-.56,2.06-1.93,2.14v.05c1.26.08,2,.47,2,1.84V78.6h-1.77Zm-1.39-2.75c.83,0,1.31-.25,1.31-1.43V61.65c0-1.15-.59-1.35-1.5-1.35h-1v7.22Z"/>
        </g>
        <polygon class="cls-2" points="185.8 78.6 185.8 23.89 177.12 29.65 174.74 26.07 190.1 15.88 190.1 78.6 185.8 78.6"/>
      </g>
      <g id="target0">
        <polygon class="cls-1" points="25.5 124.33 68.67 124.04 68.67 81.67 118.61 81.33 118.61 54.16 166.82 54 166.82 11 197 11 197 163 25.5 163 25.5 124.33"/>
      </g>
    </g>
  </g>
</svg>
